<mxfile host="app.diagrams.net" modified="2024-07-22T07:44:31.993Z" agent="Mozilla/5.0 (X11; Linux x86_64; rv:109.0) Gecko/20100101 Firefox/115.0" version="24.7.1" etag="aNUWy9M5pKBZ3q6i3eTy" type="github">
  <diagram name="第 1 页" id="hmLIQHOFhsiA3n3Aogru">
    <mxGraphModel>
      <root>
        <mxCell id="0" />
        <mxCell id="1" parent="0" />
      </root>
    </mxGraphModel>
  </diagram>
</mxfile>
